<svg xmlns="http://www.w3.org/2000/svg" xmlns:xlink="http://www.w3.org/1999/xlink" width="1021" height="1020"><defs><clipPath id="clip0"><rect x="-495" y="3464" width="1021" height="1020"></rect></clipPath></defs><g clip-path="url(#clip0)" transform="translate(495 -3464)"><path d="M-495 3974C-495 3692.33-266.665 3464 14.9998 3464L16.0002 3464C297.665 3464 526 3692.33 526 3974L526 3974C526 4255.67 297.665 4484 16.0002 4484L14.9998 4484C-266.665 4484-495 4255.67-495 3974Z" fill="#FFFFFF" fill-rule="evenodd"></path><path d="M15.5 4063C0.961853 4063-12.7334 4055.61-22.4256 4042.74L-54.0302 4000.53C-54.6623 3999.69-57.1907 3998.42-58.4548 3998.42L-68.7791 3998.42C-156.64 3998.42-211 3974.57-211 3855.97L-211 3750.45C-211 3657.17-161.908 3608-68.7791 3608L15.5 3608C24.1386 3608 31.3024 3615.18 31.3024 3623.83 31.3024 3632.48 24.1386 3639.66 15.5 3639.66L-68.7791 3639.66C-144.209 3639.66-179.395 3674.9-179.395 3750.45L-179.395 3855.97C-179.395 3951.36-146.737 3966.77-68.7791 3966.77L-58.2441 3966.77C-47.4986 3966.77-35.2781 3972.89-28.7465 3981.54L2.85811 4023.75C10.2326 4033.45 20.7674 4033.45 28.142 4023.75L59.7466 3981.54C66.6996 3972.25 77.6559 3966.77 89.2442 3966.77L99.7792 3966.77C175.209 3966.77 210.395 3931.52 210.395 3855.97L210.395 3750.45C210.395 3741.8 217.559 3734.62 226.198 3734.62 234.836 3734.62 242 3741.8 242 3750.45L242 3855.97C242 3949.25 192.908 3998.42 99.7792 3998.42L89.2442 3998.42C87.5587 3998.42 86.0838 3999.27 85.0303 4000.53L53.4257 4042.74C43.7335 4055.61 30.0381 4063 15.5 4063Z" fill="#292D32" fill-rule="evenodd"></path><path d="M142.394 3746C124.221 3746 81.3248 3724.33 68.2235 3684.6 62.9407 3668.88 64.2086 3650.82 71.6045 3636.59 78.1552 3623.84 89.1435 3614.49 102.667 3610.24 116.403 3605.99 130.983 3607.91 142.394 3614.92 153.805 3607.91 168.386 3605.99 182.333 3610.24 195.856 3614.49 206.845 3623.84 213.395 3636.59 220.791 3650.82 222.059 3668.88 216.776 3684.6 203.464 3724.97 158.665 3746 142.394 3746ZM98.2299 3674.4C107.105 3701.17 137.323 3713.49 142.817 3714.13 148.945 3713.49 178.529 3699.69 186.77 3674.62 189.306 3666.97 188.672 3657.83 185.291 3651.25 182.544 3645.94 178.529 3642.54 173.035 3640.84 167.118 3638.71 159.088 3639.77 155.496 3645.09 152.537 3649.33 147.888 3651.88 142.817 3652.1 137.745 3652.1 132.885 3649.76 129.716 3645.72 125.278 3639.99 117.459 3639.14 111.754 3640.84 106.26 3642.54 102.245 3645.94 99.4978 3651.25 96.3281 3657.83 95.6942 3666.76 98.2299 3674.4Z" fill="#336E6A" fill-rule="evenodd"></path><path d="M15.5691 3882C-1.30614 3882-18.3822 3876.77-31.4404 3866.12L-94.3206 3815.86C-100.749 3810.63-101.954 3801.18-96.7313 3794.75-91.5079 3788.31-82.0658 3787.11-75.6372 3792.33L-12.7571 3842.6C2.51096 3854.86 28.4265 3854.86 43.6945 3842.6L106.575 3792.33C113.003 3787.11 122.646 3788.11 127.669 3794.75 132.892 3801.18 131.887 3810.83 125.258 3815.86L62.3777 3866.12C49.5205 3876.77 32.4443 3882 15.5691 3882Z" fill="#336E6A" fill-rule="evenodd"></path><path d="M-210.067 4142.57C-214.092 4143.41-217.838 4145.22-220.198 4148.84-222.695 4152.6-223.666 4156.78-223.805 4161.24-223.944 4167.65-223.944 4174.06-223.805 4180.47-223.805 4182.42-223.528 4184.37-223.25 4186.32-221.863 4193.56-217.699 4198.3-210.483 4199.97-204.1 4201.36-197.717 4201.5-191.472 4200.25-182.869 4198.72-178.428 4193.98-177.318 4185.2-176.624 4180.88-176.763 4176.15-176.485 4171.41-176.763 4166.67-176.763 4161.94-177.179 4157.2-178.012 4149.12-182.452 4144.24-190.223 4142.57-196.746 4141.18-203.406 4141.18-210.067 4142.57ZM-204.967 4123.07C-200.492 4122.79-195.982 4122.93-191.472 4123.34-185.505 4123.9-179.816 4125.16-174.404 4127.8-166.633 4131.56-161.776 4137.69-159 4145.77-156.919 4151.91-156.503 4158.17-156.503 4164.44-156.503 4166.67-156.503 4168.9-156.503 4171.13-156.364 4171.41-156.225 4171.41-156.225 4171.41-156.503 4177.26-156.503 4183.11-157.335 4188.82-158.584 4198.02-162.47 4205.96-169.963 4211.67-174.959 4215.57-180.787 4217.66-186.893 4218.78-197.162 4220.59-207.431 4220.45-217.699 4217.94-231.993 4214.46-240.596 4205.4-243.094 4190.77-243.649 4187.71-243.927 4184.51-244.066 4181.3-244.204 4174.47-244.204 4167.79-244.066 4160.96-243.788 4152.74-241.984 4144.8-236.988 4137.97-232.27 4131.43-225.887 4127.52-218.255 4125.3-213.883 4124.04-209.443 4123.35-204.967 4123.07ZM-93.7791 4122.93C-93.7791 4122.93-93.6402 4122.93-93.6402 4122.93-89.0608 4123.21-87.6732 4124.18-87.1184 4128.78-86.8409 4132.26-87.1184 4135.74-87.2569 4139.23-87.2569 4140.76-88.367 4141.46-89.755 4141.6-91.004 4141.73-92.1138 4141.6-93.3628 4141.73-96.8321 4141.87-100.301 4141.87-103.632 4142.43-109.599 4143.55-112.929 4147.45-113.623 4153.72-113.762 4155.39-113.901 4157.2-113.901 4158.87-113.901 4175.45-113.901 4192.03-113.901 4208.75-113.901 4210.28-114.039 4211.81-114.178 4213.34-114.595 4216.27-115.427 4217.25-118.341 4217.38-121.533 4217.66-124.725 4217.52-127.916 4217.52-128.61 4217.52-129.304 4217.38-129.998 4217.25-132.773 4216.69-133.606 4215.85-133.883 4213.07-134.022 4211.39-134.161 4209.86-134.161 4208.19-134.161 4199.13-134.161 4190.08-134.161 4181.02-134.022 4181.16-134.022 4181.16-134.022 4181.16-134.022 4171.55-134.161 4162.08-134.022 4152.46-133.883 4146.19-132.079 4140.34-128.194 4135.19-124.031 4129.75-118.48 4126.69-111.958 4124.88-105.991 4123.21-99.885 4122.93-93.7791 4122.93ZM-277.7 4080.02C-273.242 4079.91-268.767 4080.3-264.326 4080.99-259.885 4081.69-258.498 4083.22-258.081 4087.68-257.804 4090.61-257.943 4093.67-258.081 4096.6-258.22 4098.96-258.775 4099.38-261.134 4099.38-263.354 4099.38-265.714 4098.96-267.934 4099.1-271.958 4099.1-276.121 4098.96-280.145 4099.52-286.39 4100.36-290.553 4105.09-290.831 4111.5-290.969 4115.12-290.969 4118.89-290.831 4122.65-290.831 4124.6-289.72 4125.43-287.5 4125.43-281.117 4125.43-274.734 4125.43-268.489 4125.43-266.824 4125.43-265.297 4125.57-263.632 4125.85-261.689 4126.13-260.579 4127.11-260.301 4129.2-259.747 4133.1-259.747 4137-260.301 4140.9-260.579 4142.57-261.55 4143.69-263.216 4143.82-265.019 4144.1-266.962 4144.24-268.767 4144.38-274.872 4144.38-281.117 4144.38-287.222 4144.38-289.998 4144.38-290.831 4145.22-290.831 4148-290.831 4168.21-290.831 4188.41-290.831 4208.61-290.831 4210.7-291.108 4212.79-291.385 4214.74-291.524 4216.27-292.496 4217.11-294.022 4217.38-298.601 4218.22-303.181 4218.22-307.76 4217.38-309.287 4217.11-310.258 4216.13-310.397 4214.6-310.674 4212.51-310.813 4210.42-310.952 4208.47-310.813 4198.72-310.813 4189.1-310.813 4179.63-310.813 4169.18-310.813 4158.59-310.813 4148.14-310.813 4144.66-311.507 4144.1-314.837 4144.1-317.89 4144.1-320.943 4144.1-323.996 4143.82-326.771 4143.69-327.743 4142.99-327.882 4140.2-328.159 4137.42-327.882 4134.63-327.743 4131.84-327.604 4130.17-326.355 4128.78-324.69 4128.36-321.359 4127.39-318.029 4126.55-314.837 4125.71-314.421 4125.57-314.005 4125.57-313.45 4125.43-311.229 4124.88-310.674 4124.18-310.674 4121.95-310.674 4118.19-310.674 4114.29-310.535 4110.53-310.258 4105.09-309.425 4099.8-307.067 4094.92-303.875 4087.96-298.046 4084.06-290.969 4081.97-286.598 4080.71-282.158 4080.12-277.7 4080.02Z" fill="#336E6A" fill-rule="evenodd"></path><path d="M-36.3803 4140.58C-41.2507 4141.69-45.4255 4144.06-47.9305 4148.65-49.7395 4151.98-49.8784 4155.46-49.8784 4159.08-49.8784 4162-49.0438 4162.83-46.2605 4162.83-39.9986 4162.83-33.8756 4162.83-27.8918 4162.83-22.3253 4162.83-16.6202 4162.69-11.0539 4162.83-6.18311 4162.97-5.76597 4161.72-5.90489 4157.41-6.18311 4148.09-10.4971 4142.53-19.4031 4140.58-24.9696 4139.33-30.6748 4139.33-36.3803 4140.58ZM183.053 4139.5C179.209 4139.47 175.347 4140.09 171.52 4141.27 166.511 4142.8 162.893 4146.14 161.501 4151.29 160.805 4153.93 160.805 4156.71 160.666 4159.36 160.527 4162 161.501 4162.83 164.145 4162.83 170.268 4162.83 176.391 4162.83 182.514 4162.83 188.776 4162.83 195.038 4162.83 201.3 4162.83 203.387 4162.83 204.362 4162 204.5 4159.91 204.64 4158.38 204.5 4156.85 204.362 4155.32 203.944 4148.79 200.744 4144.06 194.481 4141.69 190.724 4140.23 186.897 4139.54 183.053 4139.5ZM37.0947 4125.42C40.5737 4125.42 43.9134 4125.56 47.3924 4125.7 50.3147 4125.84 52.2629 4127.37 53.0979 4130.15 54.2112 4133.9 55.1851 4137.8 56.0202 4141.69 59.9163 4159.22 63.6739 4176.74 67.5701 4194.27 68.1269 4196.91 69.1008 4199.55 71.4666 4201.36 77.7285 4205.95 86.3562 4202.75 88.3045 4194.96 90.392 4186.34 92.201 4177.72 94.1493 4168.95 96.7933 4156.99 99.298 4145.17 102.081 4133.21 103.612 4126.81 105.421 4125.42 112.1 4125.42 115.023 4125.42 117.806 4125.56 120.728 4125.7 122.815 4125.84 123.511 4126.53 123.233 4128.62 122.676 4132.23 121.981 4135.85 121.146 4139.47 116.693 4158.66 112.379 4177.99 107.786 4197.19 106.952 4200.81 105.56 4204.14 104.168 4207.62 101.524 4214.02 96.5147 4217.64 89.696 4218.61 85.6605 4219.3 81.7644 4219.58 77.8678 4220 73.9713 4219.58 70.0751 4219.3 66.0393 4218.61 58.5249 4217.5 53.5151 4213.05 51.2886 4205.95 49.3407 4199.69 47.5317 4193.29 46.0006 4186.9 41.8259 4168.95 37.6515 4151.01 33.6161 4133.07 33.1982 4131.4 33.1982 4129.73 33.0593 4127.92 32.92 4126.67 33.6161 4125.97 34.7293 4125.84 35.5639 4125.7 36.2597 4125.42 37.0947 4125.42ZM-32.1189 4123.4C-28.0311 4123.16-23.9257 4123.26-19.8206 4123.61-14.8108 4124.03-10.0796 4125.14-5.48738 4127.23 2.30531 4130.84 7.45435 4136.96 10.098 4145.03 13.0206 4154.07 13.2988 4163.25 11.768 4172.57 11.0723 4176.46 9.95906 4177.44 5.92324 4177.86 4.39285 4177.99 2.86211 4178.13 1.19206 4178.13-6.18311 4178.13-13.6976 4178.13-21.3513 4178.13-29.7008 4178.13-37.911 4178.13-46.2605 4178.13-48.7652 4178.13-49.7395 4178.97-49.7395 4181.61-49.8784 4185.23-49.6002 4188.84-47.652 4192.18-45.008 4196.63-40.6943 4198.72-35.9628 4199.83-30.2576 4201.22-24.5521 4201.5-18.8466 4201.22-11.0539 4200.94-3.2609 4199.69 4.39285 4198.16 8.01079 4197.47 8.98474 4198.02 9.26333 4201.36 9.54154 4204.84 9.26333 4208.32 9.12404 4211.79 9.12404 4213.88 7.87151 4215.27 5.92324 4215.83 2.58352 4216.8-0.756203 4217.91-4.09592 4218.47-11.8886 4220-19.8206 4220-27.6133 4219.72-35.267 4219.44-42.7815 4218.33-49.8784 4215.41-60.3155 4211.1-66.4385 4203.31-68.665 4192.46-69.3607 4188.57-69.7782 4184.67-69.9171 4180.78-70.0564 4173.13-70.0564 4165.48-69.6389 4157.83-69.2214 4150.87-67.4124 4144.2-63.5159 4138.21-58.924 4131.26-52.2442 4127.37-44.3122 4125.28-40.2768 4124.24-36.2063 4123.65-32.1189 4123.4ZM287.995 4123.33C290.778 4123.47 292.309 4124.58 292.588 4127.37 293.005 4131.4 292.727 4135.43 292.727 4139.47 292.727 4140.72 291.891 4141.55 290.639 4141.55 289.387 4141.69 288.274 4141.69 287.021 4141.83 283.542 4141.97 280.202 4141.97 276.724 4142.53 270.601 4143.5 266.983 4147.39 266.426 4153.65 266.287 4155.46 266.148 4157.27 266.148 4159.08 266.148 4175.63 266.148 4192.18 266.148 4208.87 266.148 4210.54 266.008 4212.07 265.869 4213.74 265.591 4216.11 264.895 4217.08 262.529 4217.22 258.355 4217.5 254.319 4217.64 250.144 4217.36 247.222 4217.22 246.387 4215.83 246.248 4212.77 246.109 4206.51 246.109 4200.39 245.97 4194.13 245.97 4189.54 245.97 4185.23 245.97 4180.92 245.97 4172.99 245.97 4164.92 245.97 4156.99 245.97 4152.4 246.387 4147.67 247.779 4143.22 250.562 4134.88 256.128 4129.45 264.199 4126.39 271.853 4123.47 279.924 4122.78 287.995 4123.33ZM179.035 4123.33C185.854 4123.05 192.533 4123.33 199.212 4125.14 209.788 4128.06 217.025 4134.46 220.504 4145.03 223.426 4153.79 223.705 4162.69 222.313 4171.74 221.478 4177.44 220.504 4177.99 213.824 4178.13 205.753 4178.27 197.404 4178.13 189.193 4178.13 180.844 4178.13 172.634 4178.13 164.284 4178.13 161.64 4178.13 160.805 4178.97 160.666 4181.61 160.666 4185.23 160.805 4188.84 162.753 4192.04 165.397 4196.49 169.711 4198.58 174.443 4199.83 180.148 4201.22 185.854 4201.5 191.698 4201.22 199.491 4200.94 207.284 4199.69 214.938 4198.16 215.076 4198.16 215.355 4198.02 215.494 4198.02 218.695 4197.75 219.53 4198.16 219.669 4201.36 219.947 4204.84 219.669 4208.32 219.53 4211.79 219.39 4213.88 218.277 4215.27 216.329 4215.83 212.294 4216.94 208.397 4218.05 204.362 4218.75 197.404 4220 190.307 4220 183.21 4219.72 175.417 4219.44 167.763 4218.33 160.388 4215.27 149.951 4211.1 143.828 4203.17 141.741 4192.32 140.906 4188.43 140.628 4184.25 140.488 4180.36 140.349 4174.24 140.349 4168.12 140.488 4162 140.628 4154.49 141.88 4147.12 145.637 4140.44 149.116 4134.18 154.265 4129.73 160.944 4126.95 166.789 4124.58 172.912 4123.61 179.035 4123.33ZM354.234 4123.19C357.017 4123.33 358.548 4124.44 358.826 4127.37 359.104 4131.26 358.965 4135.29 358.965 4139.33 358.965 4140.58 358.13 4141.41 356.878 4141.41 355.625 4141.55 354.373 4141.55 353.121 4141.69 349.781 4141.83 346.302 4141.83 342.962 4142.39 336.839 4143.36 333.36 4147.26 332.525 4153.51 332.386 4155.32 332.247 4157.13 332.247 4158.94 332.247 4176.05 332.247 4193.16 332.247 4210.26 332.247 4211.65 331.969 4213.05 331.69 4214.44 331.412 4215.97 330.438 4216.8 329.046 4216.94 324.454 4217.64 319.723 4217.77 315.131 4216.94 313.182 4216.66 312.487 4215.27 312.347 4212.63 312.208 4210.26 312.069 4208.04 312.069 4205.67 312.208 4197.61 312.208 4189.68 312.208 4181.75 312.208 4173.54 312.208 4165.34 312.208 4156.99 312.208 4151.29 312.765 4145.73 315.131 4140.44 318.192 4133.48 323.619 4128.9 330.577 4126.11 338.231 4123.19 346.163 4122.64 354.234 4123.19Z" fill="#292D32" fill-rule="evenodd"></path><path d="M26.5819 4265.24 22.19 4278.47 31.025 4278.47ZM142.815 4262.98C139.921 4262.98 137.614 4263.92 135.895 4265.81 134.176 4267.69 133.316 4270.25 133.316 4273.47 133.316 4276.66 134.176 4279.21 135.895 4281.12 137.614 4283.02 139.921 4283.97 142.815 4283.97 145.675 4283.97 147.964 4283.01 149.683 4281.09 151.403 4279.17 152.263 4276.63 152.263 4273.47 152.263 4270.28 151.403 4267.74 149.683 4265.83 147.964 4263.93 145.675 4262.98 142.815 4262.98ZM176.929 4255.51 185.662 4255.51 200.267 4277.9 200.267 4255.51 209 4255.51 209 4291.64 200.267 4291.64 185.662 4269.36 185.662 4291.64 176.929 4291.64ZM100.325 4255.51 109.058 4255.51 109.058 4291.64 100.325 4291.64ZM57.5297 4255.51 85.2602 4255.51 85.2602 4262.56 75.7614 4262.56 75.7614 4291.64 67.0285 4291.64 67.0285 4262.56 57.5297 4262.56ZM21.5772 4255.51 31.6888 4255.51 44.6603 4291.64 35.417 4291.64 33.2718 4285.26 19.892 4285.26 17.7471 4291.64 8.60567 4291.64ZM-31.8409 4255.51-4.11061 4255.51-4.11061 4262.56-13.6092 4262.56-13.6092 4291.64-22.3421 4291.64-22.3421 4262.56-31.8409 4262.56ZM-55.4347 4255.51-46.7018 4255.51-46.7018 4291.64-55.4347 4291.64ZM-106.657 4255.51-97.3621 4255.51-88.4762 4282.79-79.5392 4255.51-70.2956 4255.51-83.0119 4291.64-93.9407 4291.64ZM-152.466 4255.51-143.733 4255.51-129.127 4277.9-129.127 4255.51-120.394 4255.51-120.394 4291.64-129.127 4291.64-143.733 4269.36-143.733 4291.64-152.466 4291.64ZM-178 4255.51-169.267 4255.51-169.267 4291.64-178 4291.64ZM142.815 4255C146.185 4255 149.275 4255.79 152.084 4257.37 154.892 4258.95 157.105 4261.14 158.723 4263.95 160.34 4266.77 161.149 4269.94 161.149 4273.47 161.149 4277.01 160.331 4280.19 158.697 4283.02 157.063 4285.85 154.85 4288.05 152.058 4289.63 149.267 4291.21 146.185 4292 142.815 4292 139.444 4292 136.355 4291.21 133.546 4289.63 130.737 4288.05 128.507 4285.85 126.856 4283.02 125.204 4280.19 124.379 4277.01 124.379 4273.47 124.379 4269.94 125.204 4266.77 126.856 4263.95 128.507 4261.14 130.737 4258.95 133.546 4257.37 136.355 4255.79 139.444 4255 142.815 4255Z" fill="#292D32" fill-rule="evenodd"></path></g></svg>